<?xml version="1.0" standalone="no"?>
<!DOCTYPE svg PUBLIC "-//W3C//DTD SVG 20010904//EN"
 "http://www.w3.org/TR/2001/REC-SVG-20010904/DTD/svg10.dtd">
<svg version="1.0" xmlns="http://www.w3.org/2000/svg"
 width="4000.000000pt" height="4000.000000pt" viewBox="0 0 4000.000000 4000.000000"
 preserveAspectRatio="xMidYMid meet">
<metadata>
Created by potrace 1.14, written by Peter Selinger 2001-2017
</metadata>
<g transform="translate(0.000000,4000.000000) scale(0.100000,-0.100000)"
fill="#000000" stroke="none">
<path d="M1442 28252 l-32 -3 2 -872 3 -872 1810 -1 c996 -1 1815 -2 1821 -3
8 -1 11 -2118 10 -7596 -1 -4177 1 -7596 4 -7596 3 -1 408 -2 900 -3 l895 -1
5 7600 5 7600 1753 0 1752 0 0 875 0 875 -4448 0 c-2446 0 -4462 -1 -4480 -3z"/>
<path d="M22808 26616 c-1 -2 -39 -6 -83 -9 -77 -6 -251 -33 -265 -42 -4 -2
-21 -7 -38 -10 -66 -11 -236 -76 -329 -125 -327 -171 -568 -468 -683 -843 -24
-76 -56 -217 -65 -277 -3 -25 -8 -52 -10 -60 -2 -8 -8 -51 -12 -95 -10 -97
-11 -4060 -1 -4160 6 -60 19 -153 32 -230 27 -151 88 -334 161 -478 221 -440
613 -694 1175 -764 83 -10 447 -10 523 0 163 22 343 65 440 105 86 35 251 123
316 169 97 69 257 235 325 337 80 121 168 311 202 436 79 291 88 397 88 1130
l1 565 -571 3 -571 2 0 -577 c0 -692 -3 -728 -64 -858 -27 -58 -109 -155 -131
-155 -6 0 -19 -6 -27 -13 -37 -31 -154 -54 -266 -52 -193 4 -336 95 -394 250
-52 139 -51 66 -48 2225 2 1103 6 2019 10 2035 15 73 49 164 75 205 82 127
202 184 387 183 195 -2 323 -75 394 -228 59 -125 64 -183 64 -742 l0 -443 571
1 572 0 -2 477 c-1 541 -4 592 -49 817 -87 432 -306 773 -632 981 -130 83
-362 173 -512 199 -19 3 -37 7 -40 9 -3 2 -33 7 -66 11 -33 4 -71 9 -85 11
-30 5 -387 14 -392 10z"/>
<path d="M27159 26616 c-2 -2 -42 -6 -89 -10 -302 -21 -617 -131 -837 -291
-218 -160 -400 -411 -497 -684 -31 -86 -82 -285 -90 -351 -3 -25 -8 -56 -11
-69 -17 -88 -20 -405 -20 -2146 0 -1719 3 -2026 19 -2135 2 -14 7 -47 11 -75
20 -148 82 -356 148 -498 205 -443 603 -734 1117 -816 144 -23 193 -26 390
-26 183 1 260 5 353 20 15 3 42 7 60 10 57 10 226 55 285 77 208 77 373 181
521 329 76 76 161 180 161 197 0 6 4 12 8 14 12 4 83 129 120 210 39 84 85
226 113 343 26 112 26 111 34 176 3 30 8 65 10 79 15 85 17 382 17 2075 0
1926 -1 2029 -28 2188 -3 20 -7 47 -8 60 -2 12 -6 36 -10 52 -3 17 -8 39 -10
50 -35 183 -138 430 -243 586 -164 242 -412 431 -698 529 -127 44 -235 69
-420 95 -47 7 -400 16 -406 11z m286 -1117 c148 -34 245 -127 294 -279 27 -82
29 -95 37 -194 8 -102 8 -3846 0 -3941 -4 -38 -11 -83 -16 -100 -5 -16 -11
-41 -14 -55 -8 -48 -58 -143 -99 -187 -76 -82 -169 -120 -317 -127 -275 -14
-432 102 -496 364 -18 71 -19 174 -20 2056 -2 2051 -2 2050 37 2173 54 175
176 280 343 298 28 2 52 6 53 7 7 6 154 -5 198 -15z"/>
<path d="M14059 26536 c-2 -2 -51 -6 -109 -10 -58 -3 -116 -8 -130 -10 -14 -2
-61 -7 -105 -11 -44 -4 -87 -8 -95 -10 -16 -3 -89 -13 -150 -21 -91 -11 -370
-67 -500 -99 -8 -2 -51 -12 -95 -23 -491 -120 -1107 -380 -1585 -669 -176
-107 -472 -308 -565 -384 -11 -9 -58 -47 -105 -85 -76 -61 -281 -237 -336
-289 -136 -128 -254 -248 -405 -411 -91 -98 -276 -324 -364 -444 -11 -15 -28
-38 -38 -51 -256 -344 -567 -888 -727 -1274 -23 -55 -47 -113 -55 -130 -46
-105 -166 -452 -223 -650 -80 -275 -164 -673 -197 -940 -4 -27 -8 -61 -10 -75
-5 -33 -17 -137 -20 -175 -1 -16 -6 -73 -10 -125 -4 -52 -9 -111 -11 -130 -2
-19 -6 -223 -9 -452 l-5 -418 23 0 c373 -3 12260 1 12265 4 16 10 5 848 -13
1006 -2 19 -7 73 -11 120 -3 47 -7 92 -9 100 -1 8 -6 40 -9 70 -15 115 -18
139 -41 275 -34 201 -33 197 -65 340 -222 988 -642 1873 -1262 2657 -81 102
-100 125 -133 162 -11 13 -41 47 -67 77 -227 264 -587 602 -878 824 -35 28
-73 58 -84 68 -11 9 -23 17 -26 17 -4 0 -18 9 -31 21 -38 33 -347 239 -358
239 -6 0 -11 3 -11 8 0 4 -9 12 -19 17 -11 6 -84 47 -163 93 -251 146 -583
304 -878 417 -52 20 -99 37 -105 39 -5 1 -66 21 -135 43 -300 99 -626 177
-925 223 -38 6 -81 13 -95 15 -78 12 -180 23 -390 42 -64 6 -726 14 -731 9z"/>
<path d="M18378 18355 c-2 -1 -37 -5 -80 -9 -42 -3 -82 -8 -90 -10 -7 -3 -31
-7 -53 -10 -161 -20 -455 -127 -566 -206 -15 -11 -30 -20 -33 -20 -4 0 -12 -5
-19 -10 -7 -6 -37 -29 -67 -52 -30 -23 -87 -74 -127 -114 -69 -70 -183 -212
-183 -229 0 -5 -6 -16 -14 -24 -8 -9 -34 -56 -59 -106 -78 -157 -141 -355
-163 -515 -2 -19 -7 -45 -9 -56 -28 -130 -28 -635 1 -777 2 -12 9 -50 14 -84
25 -150 111 -399 193 -553 62 -117 74 -137 133 -226 84 -126 162 -228 257
-337 93 -108 395 -409 517 -517 170 -151 207 -185 320 -295 411 -399 576 -675
617 -1035 14 -120 8 -369 -10 -450 -56 -246 -191 -358 -440 -364 -248 -7 -397
84 -466 285 -10 30 -19 57 -19 62 0 4 -4 26 -7 50 -3 23 -8 56 -10 72 -2 17
-4 170 -4 341 l-1 311 -570 0 -570 0 -1 -46 c-1 -122 3 -591 6 -626 12 -157
29 -268 60 -405 67 -289 220 -568 413 -751 226 -215 533 -347 897 -386 95 -10
425 -11 510 -1 543 60 934 294 1174 703 91 155 170 372 204 565 20 109 24 139
34 227 9 94 10 482 1 573 -9 83 -38 282 -43 290 -2 4 -7 20 -9 37 -22 122
-110 357 -192 510 -192 362 -449 657 -994 1143 -494 440 -733 754 -806 1060
-30 123 -34 159 -34 305 0 169 17 266 66 368 78 166 279 244 516 201 136 -25
224 -91 278 -208 53 -114 62 -182 66 -500 3 -159 6 -291 8 -294 7 -6 1126 -5
1133 1 6 7 5 421 -2 547 -28 473 -182 878 -434 1138 -173 179 -352 280 -656
372 -16 4 -73 15 -125 24 -52 8 -113 18 -135 22 -39 6 -421 14 -427 9z"/>
<path d="M8190 18195 c-3 -532 1 -5349 4 -5375 3 -19 7 -62 11 -95 5 -53 12
-97 29 -195 9 -54 48 -194 72 -262 190 -529 615 -873 1209 -978 33 -5 70 -12
82 -14 12 -3 53 -8 90 -11 37 -4 79 -9 93 -11 29 -5 413 -5 450 0 14 2 57 7
95 10 39 4 77 9 85 11 8 2 31 6 50 9 124 20 343 78 365 97 5 5 15 9 23 9 36 0
265 126 362 199 187 141 311 291 416 501 80 161 153 405 169 569 4 31 9 67 13
81 3 14 8 1263 9 2775 l3 2750 -629 0 c-346 0 -632 -3 -635 -6 -3 -3 -6 -1229
-7 -2725 0 -2929 2 -2791 -51 -2917 -42 -101 -99 -162 -193 -207 -177 -83
-486 -66 -621 36 -77 58 -118 123 -156 244 l-23 75 -2 2470 c-2 1359 -4 2596
-6 2750 l-2 280 -652 0 -653 0 0 -70z"/>
<path d="M12898 18259 c-7 -4 -10 -1155 -9 -3435 0 -1886 0 -3440 1 -3454 l0
-25 1507 2 c830 1 1513 2 1519 2 8 1 11 154 12 551 l1 550 -920 0 c-605 0
-919 3 -920 10 0 6 0 147 0 315 0 168 0 602 0 964 l1 659 703 0 c386 0 714 1
730 1 l27 1 0 550 0 550 -27 0 c-16 1 -344 1 -730 1 l-703 0 -1 112 c0 153 -1
1463 0 1509 l1 37 833 0 c457 0 871 0 920 1 l87 0 0 550 c0 517 -1 550 -17
551 -139 4 -3008 2 -3015 -2z"/>
<path d="M21303 18260 c-18 -5 -18 -124 -18 -3457 l0 -3453 25 -1 c109 -3
1825 1 1860 5 90 8 185 18 205 22 11 2 34 7 50 10 17 2 75 16 130 31 531 138
876 499 1013 1063 12 47 23 101 26 120 3 19 8 46 11 60 7 37 13 100 22 215 4
55 7 921 7 1925 0 1583 -4 2034 -18 2059 -2 3 -6 33 -10 67 -9 89 -42 235 -77
344 -27 85 -93 240 -119 280 -5 8 -17 29 -26 45 -35 62 -130 183 -199 251
-157 155 -359 270 -595 338 -47 13 -101 27 -120 30 -19 3 -46 8 -60 11 -25 5
-75 13 -132 20 -18 3 -81 8 -139 11 -127 8 -1810 11 -1836 4z m1779 -1112
c150 -25 247 -105 303 -247 25 -64 32 -102 43 -221 4 -41 7 -907 6 -1925 0
-1735 -2 -1855 -18 -1935 -42 -201 -146 -321 -307 -356 -19 -4 -167 -9 -329
-11 l-295 -4 1 2353 c1 1294 2 2354 3 2355 4 7 550 -1 593 -9z"/>
<path d="M26535 18255 c-7 -5 -23 -73 -35 -150 -12 -77 -24 -149 -26 -160 -2
-10 -6 -37 -9 -60 -4 -22 -15 -89 -25 -150 -11 -60 -22 -130 -25 -155 -4 -24
-8 -47 -10 -50 -1 -3 -6 -30 -9 -61 -4 -31 -9 -67 -11 -80 -9 -44 -14 -73 -21
-124 -3 -27 -8 -53 -10 -56 -2 -4 -6 -27 -9 -50 -3 -24 -8 -56 -10 -71 -3 -16
-7 -40 -10 -55 -2 -16 -14 -84 -25 -153 -27 -169 -29 -180 -36 -220 -3 -19 -8
-48 -10 -65 -6 -45 -29 -186 -79 -485 -2 -14 -14 -83 -25 -155 -12 -71 -48
-292 -80 -490 -32 -198 -62 -382 -65 -410 -4 -27 -9 -53 -11 -56 -1 -3 -6 -28
-9 -55 -4 -27 -8 -56 -10 -64 -3 -8 -7 -33 -10 -55 -3 -22 -8 -51 -11 -65 -2
-14 -7 -43 -9 -65 -3 -22 -12 -76 -19 -120 -8 -44 -17 -96 -20 -115 -6 -41
-34 -214 -41 -250 -2 -14 -11 -70 -20 -125 -24 -146 -25 -152 -30 -187 -6 -40
-44 -273 -50 -308 -3 -14 -14 -81 -25 -150 -11 -69 -22 -134 -24 -146 -2 -12
-7 -45 -11 -75 -4 -30 -9 -57 -10 -60 -2 -3 -7 -28 -10 -55 -4 -27 -18 -116
-31 -199 -14 -82 -27 -161 -29 -175 -5 -33 -9 -53 -44 -266 -17 -100 -33 -197
-35 -215 -8 -56 -22 -146 -50 -309 -3 -14 -7 -43 -11 -65 -3 -22 -10 -65 -15
-95 -5 -30 -12 -68 -14 -85 -19 -117 -47 -295 -51 -317 -5 -28 -5 -28 52 -29
32 0 285 0 563 -1 l505 0 22 148 c12 82 24 165 27 184 3 19 12 80 20 135 8 55
17 123 21 150 3 28 8 57 10 65 2 8 6 38 10 65 3 28 8 61 10 75 3 14 7 41 9 60
3 19 7 52 10 73 3 20 8 54 11 75 16 107 37 249 40 267 2 11 4 22 4 25 1 4
1070 5 1092 1 4 0 10 -26 14 -57 4 -31 9 -68 11 -83 2 -14 6 -39 9 -56 2 -16
7 -52 10 -80 4 -27 8 -57 10 -65 2 -8 7 -37 10 -65 4 -27 10 -77 15 -110 9
-58 15 -99 24 -167 3 -18 14 -98 26 -178 12 -80 23 -161 26 -180 3 -19 7 -46
9 -60 3 -14 7 -47 10 -75 3 -27 10 -72 15 -100 l10 -50 588 2 c323 1 593 2
600 2 8 1 11 8 8 19 -3 9 -8 37 -11 62 -2 25 -7 56 -10 70 -3 14 -10 54 -15
90 -5 36 -12 76 -14 90 -2 14 -10 59 -16 100 -7 41 -14 84 -16 95 -4 17 -27
163 -39 235 -6 42 -36 223 -41 250 -2 14 -6 45 -10 70 -3 25 -8 54 -11 64 -3
11 -7 36 -9 55 -2 20 -6 45 -8 57 -3 12 -8 39 -11 60 -4 21 -15 91 -25 154
-10 63 -21 129 -23 145 -7 42 -47 284 -53 320 -3 17 -7 39 -9 50 -8 61 -20
130 -50 315 -19 113 -37 223 -40 245 -3 22 -11 67 -17 100 -5 33 -11 69 -13
80 -7 48 -16 103 -21 135 -4 19 -8 47 -10 63 -2 15 -6 39 -9 55 -7 38 -45 270
-51 312 -3 19 -9 58 -14 85 -6 28 -12 64 -14 80 -3 25 -25 160 -42 255 -2 14
-9 54 -14 90 -5 36 -12 76 -14 90 -3 14 -16 97 -30 185 -15 88 -28 171 -31
185 -4 26 -25 150 -30 185 -1 11 -8 52 -14 90 -7 39 -23 140 -37 225 -24 148
-28 176 -39 238 -2 15 -11 70 -20 122 -8 52 -18 109 -21 125 -3 17 -7 44 -8
61 -2 16 -6 39 -9 50 -3 10 -8 39 -11 64 -3 25 -8 56 -11 70 -3 14 -8 45 -11
70 -3 25 -8 54 -10 65 -2 11 -15 90 -29 175 -14 85 -28 166 -30 180 -2 14 -9
54 -14 90 -6 36 -13 76 -16 90 -2 13 -7 42 -10 65 -3 22 -15 96 -26 165 -11
69 -22 136 -24 150 -8 50 -24 145 -28 165 -3 11 -10 60 -17 108 -8 48 -18 91
-23 94 -17 10 -1529 9 -1542 -2z m736 -1715 c1 -16 2 -33 3 -37 1 -5 6 -33 10
-63 4 -30 9 -66 11 -80 2 -14 11 -77 20 -140 9 -63 18 -131 21 -150 21 -148
30 -215 38 -270 3 -19 16 -114 30 -210 14 -96 28 -197 31 -224 3 -27 8 -52 9
-55 2 -3 7 -33 10 -66 3 -33 8 -71 11 -85 2 -13 7 -42 10 -65 11 -84 30 -213
41 -295 5 -30 9 -59 9 -65 2 -14 17 -117 20 -135 1 -8 6 -40 10 -70 3 -30 9
-68 11 -85 3 -16 7 -41 9 -55 5 -34 18 -133 20 -145 0 -5 4 -35 9 -65 4 -30 9
-66 11 -80 2 -14 6 -44 10 -68 4 -23 8 -52 10 -65 12 -100 26 -196 30 -214 l5
-23 -403 0 -404 0 9 58 c4 31 10 73 12 92 3 19 8 53 11 75 3 22 8 58 11 80 3
22 7 51 9 65 2 14 9 61 15 106 6 44 12 89 14 100 2 10 7 44 11 74 7 58 10 81
19 145 10 72 18 130 21 150 1 11 5 38 8 60 4 22 8 56 11 75 8 59 18 134 22
154 2 10 6 44 10 75 3 31 8 64 10 75 2 10 6 44 9 75 4 31 8 63 11 71 2 8 6 35
9 60 3 25 10 79 16 120 23 162 28 199 34 250 8 56 14 98 25 175 5 33 12 83 16
110 3 28 7 57 9 65 1 8 6 40 10 70 3 30 8 66 10 80 20 129 47 340 47 358 1 33
18 27 19 -8z"/>
<path d="M29325 18262 l-40 -3 113 -342 c63 -188 115 -346 116 -352 2 -5 6
-17 9 -25 6 -16 293 -885 780 -2360 l295 -895 -1 -1483 c-2 -1311 0 -1482 13
-1483 8 0 278 -1 600 -2 l585 0 2 1489 1 1489 165 495 c146 442 327 986 963
2909 101 305 182 557 179 559 -3 3 -844 5 -1117 3 l-57 -1 -17 -57 c-9 -32
-59 -204 -111 -383 -53 -179 -126 -431 -164 -560 -146 -501 -210 -723 -270
-925 -33 -115 -72 -250 -86 -300 -14 -49 -28 -96 -32 -103 -6 -11 -29 58 -81
243 -4 17 -35 122 -68 235 -33 113 -81 277 -107 365 -26 88 -71 243 -102 345
-30 102 -57 194 -60 205 -3 11 -37 127 -75 258 -38 130 -71 245 -73 255 -2 9
-18 62 -34 117 -17 55 -42 143 -57 195 -15 52 -31 99 -35 104 -7 8 -1137 15
-1234 8z m1973 -5938 c178 -88 162 -343 -25 -410 -57 -20 -112 -17 -169 10
-181 84 -166 344 23 412 59 21 113 17 171 -12z"/>
<path d="M33118 13085 c-2 -1 -23 -5 -48 -9 -187 -24 -362 -108 -489 -235 -95
-96 -112 -117 -161 -217 -60 -120 -91 -252 -94 -404 -1 -69 1 -145 6 -170 5
-25 11 -58 14 -75 22 -130 109 -304 206 -411 240 -264 681 -349 1033 -198 l81
35 -2 245 c0 134 -3 247 -6 250 -3 2 -25 -14 -49 -36 -93 -87 -214 -126 -364
-117 -192 11 -333 109 -395 275 -29 75 -35 221 -14 311 45 194 198 317 405
326 143 6 262 -32 370 -117 39 -30 48 -34 50 -20 2 9 4 118 4 241 l0 224 -45
24 c-45 23 -125 50 -176 59 -15 3 -32 8 -37 11 -10 6 -283 14 -289 8z"/>
<path d="M34699 13086 c-2 -2 -29 -7 -61 -10 -185 -22 -387 -119 -521 -252
-428 -425 -315 -1166 218 -1428 149 -74 268 -100 450 -100 152 -1 239 12 350
52 69 24 165 69 175 81 3 3 25 19 50 35 209 136 355 414 364 691 11 371 -167
675 -491 839 -51 25 -200 73 -258 81 -44 7 -271 16 -276 11z m220 -460 c54
-12 149 -66 189 -107 166 -169 158 -517 -16 -670 -86 -75 -175 -104 -317 -102
-269 3 -436 188 -422 468 5 109 11 133 44 198 36 72 71 113 128 151 80 54 163
75 275 71 52 -2 106 -6 119 -9z"/>
<path d="M36920 13071 c-97 -23 -139 -41 -214 -95 -62 -44 -186 -168 -186
-186 0 -6 -4 -10 -9 -10 -5 0 -9 54 -8 125 2 119 1 125 -18 126 -20 1 -323 0
-420 -1 l-50 0 0 -837 1 -837 233 0 c128 -1 237 2 243 5 6 4 11 176 12 465 2
391 5 471 20 539 38 175 106 267 226 307 56 18 147 22 198 8 52 -14 116 -74
137 -130 37 -99 43 -178 44 -688 1 -273 4 -499 7 -501 6 -6 474 -7 475 -1 1 3
3 208 5 455 2 248 5 461 7 475 14 97 22 131 40 180 58 158 154 224 319 219
153 -4 220 -66 252 -235 12 -63 15 -180 16 -584 0 -277 5 -507 9 -510 7 -4
411 -5 468 -1 8 1 11 158 8 634 -1 347 -5 643 -9 657 -3 14 -8 37 -11 52 -9
48 -44 128 -77 177 -97 140 -254 211 -462 206 -119 -3 -150 -8 -236 -42 -110
-44 -216 -126 -303 -234 l-45 -57 -36 72 c-89 174 -225 252 -456 260 -75 3
-126 -1 -180 -13z"/>
</g>
</svg>
