<svg id="Layer_1" data-name="Layer 1" xmlns="http://www.w3.org/2000/svg" viewBox="0 0 400 200"><defs><style>.cls-1,.cls-2{fill:#fff;}.cls-2{stroke:#fff;stroke-miterlimit:10;}</style></defs><title>Taco Tuesday Logo stacked sm</title><path class="cls-1" d="M52.44,35.31H16.6V18.12h88.08V35.31H70.16V184.75H52.44Z"/><path class="cls-2" d="M212.91,87V51.23c0-10.28,5.33-16.37,15.42-16.37S243.76,41,243.76,51.23v7.05h-9.9V50.57c0-4.38-2.1-6.19-5.24-6.19s-5.24,1.81-5.24,6.19V87.8c0,4.38,2.1,6.1,5.24,6.1s5.24-1.72,5.24-6.1V77.61h9.9V87c0,10.28-5.33,16.38-15.43,16.38S212.91,97.32,212.91,87Z"/><path class="cls-2" d="M255.18,86.66v-35c0-10.67,5.62-16.76,15.91-16.76S287,41,287,51.62v35c0,10.66-5.62,16.76-15.9,16.76S255.18,97.32,255.18,86.66Zm21.33.67V51c0-4.76-2.09-6.57-5.42-6.57s-5.43,1.81-5.43,6.57V87.33c0,4.76,2.09,6.57,5.43,6.57S276.51,92.09,276.51,87.33Z"/><path class="cls-2" d="M83.91,167.86V117H95.43v51.61c0,4.76,2.19,6.48,5.86,6.48s5.86-1.72,5.86-6.48V117h11.09v50.85c0,10.67-5.86,16.76-17.16,16.76S83.91,178.53,83.91,167.86Z"/><path class="cls-2" d="M130.08,117h28.57v9.52H140.56v17.62h14.38v9.52H140.56v20.47h18.09v9.53H130.08Z"/><path class="cls-2" d="M169.22,167.86v-3.81h9.9v4.57c0,4.76,2.1,6.48,5.43,6.48s5.43-1.72,5.43-6.67c0-5.52-2.1-9.05-8.95-15-8.77-7.72-11.62-13.15-11.62-20.76,0-10.48,5.42-16.57,15.61-16.57s15.24,6.09,15.24,16.76v2.76h-9.9v-3.43c0-4.76-1.91-6.57-5.24-6.57s-5.24,1.81-5.24,6.38c0,4.86,2.19,8.38,9.05,14.38,8.76,7.71,11.52,13,11.52,21.33,0,10.86-5.52,17-15.81,17S169.22,178.53,169.22,167.86Z"/><path class="cls-2" d="M212.64,117h16c10.48,0,15.62,5.81,15.62,16.47v33.71c0,10.67-5.14,16.48-15.62,16.48h-16Zm15.8,57.13c3.34,0,5.34-1.71,5.34-6.47V133c0-4.76-2-6.48-5.34-6.48h-5.33v47.61Z"/><path class="cls-2" d="M264.07,117h14.18l10.86,66.66H278.64l-1.91-13.24v.19h-11.9l-1.91,13h-9.71Zm11.42,44.56-4.66-32.94h-.19l-4.57,32.94Z"/><path class="cls-1" d="M204.34,98.13C204.34,63.24,177.28,35,143.9,35S83.47,63.24,83.47,98.13v4.59H204.31Z"/><path class="cls-2" d="M317.15,117,310,141.48h-.19L302.68,117H291.53l12.67,38.28V184h10.47V155.29L327.34,117Zm-7.71,62.54a2.87,2.87,0,1,1,2.88-2.85A2.87,2.87,0,0,1,309.44,179.55Z"/><path class="cls-1" d="M329.3,184.88c-5.16,0-8.8-3.61-8.8-8.9s3.68-8.77,8.87-8.77a8.38,8.38,0,0,1,4.33,1l0,4.81a5.28,5.28,0,0,0-3.86-1.61,4.2,4.2,0,0,0-4.43,4.5,4.25,4.25,0,0,0,4.57,4.54,4.57,4.57,0,0,0,3.72-1.72l0,5A8.32,8.32,0,0,1,329.3,184.88Z"/><path class="cls-1" d="M344.77,184.88c-5.5,0-9.21-3.92-9.21-8.83a8.82,8.82,0,0,1,9.21-8.84c5.43,0,9.18,3.82,9.18,8.84S350.17,184.88,344.77,184.88Zm0-13.27a4.42,4.42,0,1,0,4.33,4.4A4.08,4.08,0,0,0,344.74,171.61Z"/><path class="cls-1" d="M356.8,184.23V167.76h4.78v2.58c1.55-2.13,3.27-3.13,5.54-3.13,2.72,0,4.44,1.1,5.16,3.37a6.84,6.84,0,0,1,5.78-3.37c2.33,0,3.95.86,4.84,2.58a9.36,9.36,0,0,1,.66,4.3v10.14h-4.78v-8.15c0-3.23-.31-5-2.75-5-2.62,0-3.51,2-3.51,5.88v7.26h-4.78v-8.15c0-3.16-.34-5-2.54-5-2.65,0-3.62,2-3.62,5.84v7.26Z"/></svg>