<?xml version="1.0" encoding="utf-8"?>
<svg viewBox="0 0 4000 2000" xmlns="http://www.w3.org/2000/svg">
  <defs>
    <style>.cls-1,.cls-3,.cls-4{fill:#222222;}.cls-2,.cls-3,.cls-4{stroke:#222222;stroke-miterlimit:10;}.cls-2,.cls-3{stroke-width:13.45px;}.cls-4{stroke-width:14.1px;}</style>
  </defs>
  <title>Taco Tuesday Logo stacked layered</title>
  <g id="com">
    <path class="cls-1" d="M3321.83,1870.93c-52.47,0-89.54-36.73-89.54-90.59,0-53.16,37.43-89.18,90.24-89.18,16.45,0,30.44,2.79,44.07,10.48l-.35,49a53.58,53.58,0,0,0-39.18-16.43c-26.57,0-45.11,17.48-45.11,45.81,0,27.63,17.49,46.17,46.52,46.17,15.74,0,27.63-5.6,37.77-17.48l.35,50.7C3353,1867.44,3338.62,1870.93,3321.83,1870.93Z"/>
    <path class="cls-1" d="M3479.22,1870.93c-56,0-93.74-39.87-93.74-89.89s38.83-89.88,93.74-89.88c55.26,0,93.38,38.81,93.38,89.88C3572.6,1831.76,3534.13,1870.93,3479.22,1870.93Zm-.35-135c-27.29,0-44.08,17.83-44.08,44.77,0,27.28,17.15,45.12,44.08,45.12s44.07-17.84,44.07-45.12C3522.94,1753.75,3506.15,1735.92,3478.87,1735.92Z"/>
    <path class="cls-1" d="M3601.62,1864.28V1696.75h48.62V1723c15.73-21.69,33.23-31.83,56.31-31.83,27.63,0,45.11,11.19,52.46,34.27,15.75-23.08,35.68-34.27,58.77-34.27q35.67,0,49.32,26.23c6.29,12.58,6.64,26.57,6.64,43.72v103.17h-48.62v-82.89c0-32.88-3.15-50.72-28-50.72-26.59,0-35.68,20.3-35.68,59.81v73.8h-48.62v-82.89c0-32.18-3.49-50.37-25.87-50.37-26.93,0-36.73,20-36.73,59.46v73.8Z"/>
  </g>
  <g id="Y">
    <path class="cls-2" d="M3198.25,1180.52l-72.64,248.93h-1.94L3051,1180.52H2937.7l128.82,389.38v291.64h106.55V1569.9l128.83-389.38Zm-78.44,636.2a29.21,29.21,0,1,1,29.37-29A29.27,29.27,0,0,1,3119.81,1816.72Z" style="fill: rgb(34, 34, 34);"/>
  </g>
  <g id="A">
    <path class="cls-3" d="M2658.31,1180.52h144.32l110.43,678H2806.51l-19.38-134.63v1.94H2666.05l-19.37,132.69h-98.8Zm116.23,453.31-47.46-335.15h-1.94l-46.49,335.15Z"/>
  </g>
  <g id="D">
    <path class="cls-3" d="M2135.18,1180.52h162.73c106.55,0,158.86,59.08,158.86,167.57V1691c0,108.49-52.31,167.57-158.86,167.57H2135.18ZM2296,1761.7c33.9,0,54.24-17.45,54.24-65.87V1343.24c0-48.42-20.34-65.86-54.24-65.86h-54.25V1761.7Z"/>
  </g>
  <g id="S">
    <path class="cls-3" d="M1693.53,1697.76V1659h100.74v46.49c0,48.44,21.31,65.87,55.2,65.87s55.22-17.43,55.22-67.8c0-56.18-21.31-92-91-153-89.11-78.47-118.17-133.68-118.17-211.16,0-106.56,55.2-168.54,158.85-168.54s155,62,155,170.47v28.09H1908.56v-34.88c0-48.42-19.36-66.83-53.27-66.83s-53.28,18.41-53.28,64.9c0,49.41,22.28,85.24,92,146.26,89.12,78.47,117.21,132.7,117.21,217,0,110.43-56.19,172.41-160.79,172.41S1693.53,1806.26,1693.53,1697.76Z"/>
  </g>
  <g id="E">
    <path class="cls-3" d="M1295.47,1180.52h290.59v96.86H1402v179.19h146.26v96.86H1402V1761.7h184v96.85H1295.47Z"/>
  </g>
  <g id="U">
    <path class="cls-4" d="M825.84,1697.76V1180.52H943v525c0,48.44,22.36,65.87,59.61,65.87s59.61-17.43,59.61-65.87v-525H1175v517.24c0,108.5-59.61,170.48-174.58,170.48S825.84,1806.26,825.84,1697.76Z"/>
  </g>
  <g id="O">
    <path class="cls-3" d="M2567.94,871.82V515.37c0-108.49,57.15-170.49,161.76-170.49s161.77,62,161.77,170.49V871.82c0,108.48-57.16,170.48-161.77,170.48S2567.94,980.3,2567.94,871.82Zm217,6.78v-370c0-48.44-21.31-66.83-55.22-66.83s-55.21,18.39-55.21,66.83v370c0,48.42,21.31,66.84,55.21,66.84S2784.92,927,2784.92,878.6Z"/>
  </g>
  <g id="C">
    <path class="cls-3" d="M2137.92,875.68V511.48c0-104.6,54.24-166.6,156.92-166.6s156.92,62,156.92,166.6v71.69H2351V504.7c0-44.56-21.32-62.95-53.28-62.95s-53.27,18.39-53.27,62.95V883.43c0,44.56,21.31,62,53.27,62S2351,928,2351,883.43V779.8h100.74v95.88c0,104.62-54.24,166.62-156.92,166.62S2137.92,980.3,2137.92,875.68Z"/>
  </g>
  <g id="taco">
    <path class="cls-1" d="M2050.75,988.54c0-354.94-275.23-642.67-614.73-642.67S821.3,633.6,821.3,988.54v46.67H2050.45Z"/>
  </g>
  <g id="T">
    <path class="cls-1" d="M505.73,349.51H141.18V174.63h895.9V349.51H686V1869.58H505.73Z"/>
  </g>
</svg>